<?xml version="1.0" encoding="UTF-8"?><svg id="Layer_1" xmlns="http://www.w3.org/2000/svg" xmlns:xlink="http://www.w3.org/1999/xlink" viewBox="0 0 1920 1080"><defs><style>.cls-1{fill:url(#linear-gradient);}.cls-2{clip-path:url(#clippath);}.cls-3,.cls-4{fill:#fff;}.cls-5{fill:#d0eae0;}.cls-6,.cls-7{fill:#3a1e27;}.cls-8{fill:#532f65;}.cls-9{clip-rule:evenodd;}.cls-9,.cls-10{fill:none;}.cls-11{clip-path:url(#clippath-1);}.cls-10{stroke:#000;stroke-miterlimit:22.93;stroke-width:.57px;}.cls-12{fill:url(#linear-gradient-2);}.cls-13{fill:#fabaaf;}.cls-13,.cls-14,.cls-15,.cls-7,.cls-16,.cls-17,.cls-18,.cls-19,.cls-20,.cls-21,.cls-22,.cls-23,.cls-4,.cls-24,.cls-25,.cls-26,.cls-27{fill-rule:evenodd;}.cls-14{fill:#fac0b6;}.cls-15{fill:#f79b63;}.cls-16{fill:#261016;}.cls-17{fill:#477070;}.cls-18{fill:#380097;}.cls-19{fill:#114344;}.cls-20{fill:#d88256;}.cls-21{fill:#bcd3ca;}.cls-22{fill:#2f5959;}.cls-23{fill:#8f2f1b;}.cls-24{fill:#f0375e;}.cls-25{fill:#026841;}.cls-26{fill:#030000;}</style><clipPath id="clippath"><polygon class="cls-9" points="1087.95 363.22 1050.44 345.68 1049.99 342.44 1080.77 349.43 1094.9 352.91 1087.95 363.22"/></clipPath><linearGradient id="linear-gradient" x1="-5763.7" y1="281.19" x2="-5763.36" y2="281.19" gradientTransform="translate(27482.86 838993.63) rotate(90) scale(145.51 93.93)" gradientUnits="userSpaceOnUse"><stop offset="0" stop-color="#f86c7b"/><stop offset="1" stop-color="#d65468"/></linearGradient><clipPath id="clippath-1"><polygon class="cls-9" points="1106.13 320.59 1129.27 356.87 1112.15 369.05 1094.96 376.7 1075.09 338.52 1091.03 327.78 1106.13 320.59"/></clipPath><linearGradient id="linear-gradient-2" x1="-5770.91" y1="290.78" x2="-5770.53" y2="290.78" gradientTransform="translate(56868.83 1090878.73) rotate(90) scale(188.98 191.79)" xlink:href="#linear-gradient"/></defs><path class="cls-5" d="M1113.37,1027.49c21.85-.22,43.55-1.28,64.87-3.01,86.6-7.01,239.42-5.08,249.44-118.48,4.27-48.34-26.11-94.29-39.07-138.88-40.73-140.23,86.34-419.56-96.67-492.29-87.56-34.8-183.25-28.8-277.8,5.96-50.91,18.72-109.85,23.09-159.84,13.98-54.63-9.96-85.29-53.64-135.28-71.28-35.28-12.45-90.1-15.66-129.03-12.51-74.97,6.05-151.02,70.35-178.14,140.28-31.56,81.4,37.29,141.79,36.11,222.22-.65,44.24-34.96,77.86-41.41,120.64-10.69,70.82,33.56,125.4,86.64,167,134.48,105.39,269.98,88.16,420.24,138.47,63.1,21.13,132.19,28.58,199.93,27.9Z"/><g><path class="cls-22" d="M1308.66,888.05c24.33,3.62,37.87,7.63,37.87,11.84,0,16.14-198.25,29.23-442.81,29.23s-442.81-13.09-442.81-29.23c0-2.72,5.62-5.35,16.12-7.84-125.11-5.66-209.74-16.52-209.74-28.98,0-15.1,124.31-27.84,294.34-31.84,100.02-10.75,270.42-17.84,463.83-17.84,307.98,0,557.65,17.96,557.65,40.11,0,14.71-110.19,27.57-274.45,34.55"/><path class="cls-25" d="M1087.58,433.08c-44.07,56.02-75.69,135.03-149.81,88.81l42.01-70.37,107.8-18.44Z"/><path class="cls-25" d="M937.76,521.89c7.4-78.3,61.36-97.45,149.81-88.81-58.99,20.06-111.53,46.91-149.81,88.81"/><path class="cls-25" d="M933.25,658.7h27.66c32.54-112.05-92.33-209.09-37.25-315.23-92.16,111.91,55.55,221.17,9.59,315.23"/><path class="cls-25" d="M760.8,417.57c44.07,56.02,75.69,135.03,149.81,88.81l-42.01-70.37-107.8-18.44Z"/><path class="cls-25" d="M910.62,506.38c-7.4-78.3-61.36-97.45-149.81-88.81,58.98,20.06,111.53,46.91,149.81,88.81"/><path class="cls-25" d="M1007.98,315.06c-27.92,35.49-47.95,85.55-94.92,56.27l26.62-44.58,68.3-11.69Z"/><path class="cls-25" d="M913.07,371.33c4.69-49.61,38.87-61.74,94.92-56.27-37.37,12.71-70.66,29.72-94.92,56.27"/><path class="cls-25" d="M843.69,320.83c14.53,32.89,20.1,75.46,62.11,62.14l-11.73-39.64-50.38-22.5Z"/><path class="cls-25" d="M905.8,382.97c6.17-39.19-17.8-55.3-62.11-62.14,26.32,17.18,48.64,36.87,62.11,62.14"/><path class="cls-19" d="M818.31,624.51c5,0,9.74,1.1,14,3.06,11.26-11.64,27.04-18.87,44.52-18.87,14.4,0,27.65,4.91,38.17,13.15,13.5-11.32,30.9-18.14,49.9-18.14,24.37,0,46.12,11.22,60.37,28.77,5.54-4.05,12.36-6.43,19.75-6.43,14.74,0,27.26,9.52,31.75,22.74,2.3-.9,4.8-1.39,7.41-1.39,9.89,0,18.14,7.01,20.05,16.33h-318.95c-.32-1.85-.48-3.76-.48-5.7,0-18.51,15.01-33.52,33.52-33.52"/><path class="cls-21" d="M1309.28,835.89s55.47,8.39,71.82-54.65c4.35-25.98,20.8-48.2,43.59-72.63h0l-13.86-5.92,23.47-4.16c11.75-12.1,24.78-24.89,38.47-39.06,63.77-60.15,59.64-117.02,38.31-156.84-3.61-12.68-6.25-25.05-3.89-35.84,3.21-15.73-1.66-16.15-5.5-1.69-11.18,37.44-79.1,46-78.74,84.75,0,.49-.03,.96-.07,1.42l6.11,18.99-13.18-7.78c-17.03,8.23-12.78,54.85-43.42,84.98-11.28,11.13-20.26,23.92-26.26,38.84l8.94,22.1-12.38-8.6-.79-.82c-2,7.45-3.33,15.38-3.91,23.84-2.5,22.24-3.86,45.5-15.19,59.94-16.05,5.82-20.53,23.56-13.54,53.14"/><path class="cls-3" d="M1331.48,780.27l5.96,29.9-1.67,.33-5.96-29.9,1.67-.33Zm159.36-274.7c3.89,33.5-13.31,64.91-36.57,95.73l38.84-14.15,.58,1.6-41.33,15.06c-8.81,11.52-18.41,22.95-28.02,34.39-4.96,5.9-9.91,11.81-14.76,17.72l38.65-14.08,.58,1.6-41.34,15.06c-10.42,12.81-20.26,25.68-28.4,38.7l39.25-14.3,.58,1.6-41.27,15.04c-7.82,12.86-13.94,25.88-17.27,39.15l40.06-14.6,.58,1.6-41.12,14.99c-1.82,7.9-2.64,15.9-2.24,24v.07c-.28,8.89-1.92,17.05-4.7,24.54l22.17-14.93,.95,1.41-24.21,16.3c-1.91,4.57-4.25,8.88-6.96,12.94-8.58,12.84-20.89,23.24-35.18,31.62l-.86-1.47c14.08-8.25,26.21-18.48,34.63-31.1,6.36-9.53,10.62-20.43,12.02-32.87l-8-17.04,1.54-.72,6.76,14.41c.07-1.03,.12-2.06,.16-3.11-.84-16.85,3.49-33.18,11.06-49.19l-7.65-18.9,1.58-.63,7.07,17.47c6.63-13.5,15.5-26.77,25.46-39.93l-4.88-24.91,1.66-.33,4.59,23.43c8.87-11.6,18.53-23.12,28.2-34.63,4.68-5.58,9.36-11.15,13.95-16.73l-10.47-32.03,1.62-.53,10.14,31c16.36-20,31.42-40.1,40.96-60.69l-16.8-24.99,1.41-.95,16.22,24.13c7.35-16.47,11.1-33.25,9.09-50.54l1.69-.19Z"/><path class="cls-21" d="M1312.14,835.45c9.71-41.7,27.46-70.11,48.76-90.28l5.44,7.22,2.06-13.86c46.45-38.61,106.38-43.24,138.09-60.88-14.22,11.55-27.02,26.24-39.34,41.99h0l-13.99-1.05,7.75,9.16h0c-41.22,54.35-78.69,116.94-148.77,107.71"/><path class="cls-3" d="M1312.53,835.8c13.99-15.43,28.73-30.24,44.14-44.47l31.95,5.46,.18-1.03-31.16-5.32c8.4-7.73,16.99-15.28,25.79-22.67l31.96,5.46,.18-1.03-31.09-5.31c1.28-1.07,2.56-2.14,3.85-3.21,7.55-6.24,15.23-12.37,23.05-18.39l25.32,3.8,.15-1.02-24.34-3.66c19.96-15.3,40.77-29.89,62.36-43.82l-.57-.87c-13.69,8.84-27.08,17.94-40.13,27.32l4.73-19.34-1.01-.25-5.02,20.52c-10.29,7.42-20.36,15.01-30.22,22.79l2.65-21.17-1.03-.13-2.78,22.22c-4.66,3.69-9.27,7.42-13.83,11.2-6.32,5.23-12.53,10.54-18.65,15.93l1.94-22.07-1.04-.09-2.04,23.16c-8.1,7.17-16.03,14.49-23.77,21.96l1.93-21.98-1.04-.09-2.04,23.18c-10.76,10.44-21.17,21.17-31.2,32.23l.77,.7Z"/><path class="cls-21" d="M541.1,835.89s-55.47,8.39-71.82-54.65c-4.36-25.98-20.8-48.2-43.59-72.63h0l13.86-5.92-23.47-4.16c-11.75-12.1-24.78-24.89-38.47-39.06-63.77-60.15-59.64-117.02-38.31-156.84,3.61-12.68,6.25-25.05,3.89-35.84-3.21-15.73,1.66-16.15,5.5-1.69,11.18,37.44,79.1,46,78.74,84.75,0,.49,.03,.96,.06,1.42l-6.11,18.99,13.18-7.78c17.03,8.23,12.78,54.85,43.42,84.98,11.28,11.13,20.26,23.92,26.26,38.84l-8.94,22.1,12.38-8.6,.79-.82c2,7.45,3.33,15.38,3.91,23.84,2.5,22.24,3.86,45.5,15.19,59.94,16.05,5.82,20.53,23.56,13.54,53.14"/><path class="cls-3" d="M518.9,780.27l-5.96,29.9,1.67,.33,5.96-29.9-1.67-.33Zm-159.36-274.7c-3.89,33.5,13.31,64.91,36.57,95.73l-38.84-14.15-.58,1.6,41.33,15.06c8.81,11.52,18.41,22.95,28.02,34.39,4.95,5.9,9.91,11.81,14.76,17.72l-38.65-14.08-.58,1.6,41.34,15.06c10.42,12.81,20.26,25.68,28.4,38.7l-39.25-14.3-.58,1.6,41.27,15.04c7.82,12.86,13.94,25.88,17.28,39.15l-40.06-14.6-.58,1.6,41.12,14.99c1.82,7.9,2.64,15.9,2.24,24v.07c.28,8.89,1.92,17.05,4.7,24.54l-22.17-14.93-.95,1.41,24.21,16.3c1.91,4.57,4.25,8.88,6.96,12.94,8.58,12.84,20.89,23.24,35.18,31.62l.86-1.47c-14.08-8.25-26.21-18.48-34.63-31.1-6.36-9.53-10.62-20.43-12.02-32.87l8-17.04-1.54-.72-6.76,14.41c-.07-1.03-.13-2.06-.16-3.11,.84-16.85-3.5-33.18-11.06-49.19l7.65-18.9-1.58-.63-7.07,17.47c-6.62-13.5-15.5-26.77-25.46-39.93l4.88-24.91-1.66-.33-4.59,23.43c-8.87-11.6-18.53-23.12-28.2-34.63-4.68-5.58-9.36-11.15-13.95-16.73l10.47-32.03-1.62-.53-10.14,31c-16.36-20-31.42-40.1-40.96-60.69l16.8-24.99-1.41-.95-16.22,24.13c-7.35-16.47-11.1-33.25-9.09-50.54l-1.69-.19Z"/><path class="cls-21" d="M538.24,835.45c-9.71-41.7-27.46-70.11-48.76-90.28l-5.44,7.22-2.06-13.86c-46.45-38.61-106.38-43.24-138.09-60.88,14.22,11.55,27.02,26.24,39.34,41.99h0l13.99-1.05-7.75,9.16h0c41.22,54.35,78.69,116.94,148.77,107.71"/><path class="cls-3" d="M537.86,835.8c-13.99-15.43-28.73-30.24-44.14-44.47l-31.95,5.46-.18-1.03,31.16-5.32c-8.4-7.73-17-15.28-25.79-22.67l-31.96,5.46-.18-1.03,31.09-5.31c-1.28-1.07-2.56-2.14-3.85-3.21-7.55-6.24-15.23-12.37-23.05-18.39l-25.32,3.8-.15-1.02,24.34-3.66c-19.96-15.3-40.77-29.89-62.36-43.82l.57-.87c13.69,8.84,27.08,17.94,40.14,27.32l-4.73-19.34,1.01-.25,5.02,20.52c10.28,7.42,20.36,15.01,30.22,22.79l-2.65-21.17,1.03-.13,2.78,22.22c4.66,3.69,9.27,7.42,13.83,11.2,6.32,5.23,12.53,10.54,18.65,15.93l-1.94-22.07,1.04-.09,2.04,23.16c8.1,7.17,16.03,14.49,23.77,21.96l-1.93-21.98,1.04-.09,2.04,23.18c10.76,10.44,21.17,21.17,31.2,32.23l-.77,.7Z"/><path class="cls-17" d="M684.79,570.33l45.04-7.94c12.14-2.14,23.82,6.04,25.96,18.17l29.37,166.56c2.14,12.14-6.04,23.82-18.18,25.96l-45.04,7.94c-12.14,2.14-23.82-6.04-25.96-18.18l-29.37-166.56c-2.14-12.14,6.04-23.82,18.18-25.96"/><path class="cls-13" d="M757.75,591.74l31.28-5.52c12.47-2.29,21.24,.17,30.16,4.03l99.89,45.04,77.23-13.62c12.55-2.21,24.63,6.25,26.85,18.8h0c1.62,9.17-2.46,18.08-9.66,23.08l.44,.63c1.1-.91,2.29-1.75,3.57-2.48l112.94-65.21c12.41-7.16,28.42-2.87,35.58,9.53h0c7.16,12.41,2.87,28.42-9.53,35.58l-112.94,65.21-84.73,49.57c-12.27,7.05-27.64,10.24-41.17,6.01l-103.45-37.86-32.03,5.65-24.41-138.44Z"/><path class="cls-13" d="M1136.84,652.96l-93.29,53.86-84.73,49.57c-12.27,7.05-27.64,10.24-41.17,6.01l-103.45-37.86-32.03,5.65-17.05-96.7c7.29-2.1,13.51-.27,20.06,3.01l68.7,34.33c13.96,6.2,28.26,11.34,44.04,9.38l75.92-13.07c18.29,11.69,41.28,10.32,67.37,.28l49.02-18.93c19.72-8.84,33.96-9.32,46.61,4.49h0Z"/><path class="cls-7" d="M1164.32,713.24l81.07,54.62,81.07-54.62-81.07-54.62-81.07,54.62Zm-3.61,111.67l79.87-53.81-79.87-53.81v-8.11l79.87-53.81-81.07-54.62,2.41-4.86,83.48,56.24,83.48-56.24,2.41,4.86-81.07,54.62,79.87,53.81v8.11l-79.87,53.81,79.87,53.81-2.41,4.86-82.27-55.43-82.27,55.43-2.41-4.86Z"/><rect class="cls-6" x="1148.3" y="579.9" width="194.17" height="20.17"/><rect class="cls-10" x="1326.45" y="709.19" width="6.74" height="8.11" rx="3.37" ry="3.37"/><g class="cls-2"><rect class="cls-1" x="1056.03" y="328.34" width="32.82" height="48.99" transform="translate(426.03 1278.45) rotate(-73.28)"/></g><path class="cls-8" d="M1131.14,330.29c-2.18-3.78-5.71-6.32-9.63-7.37-3.92-1.05-8.25-.61-12.02,1.57l-1.55,.9,1.51,2.61,1.55-.9c3.05-1.76,6.55-2.12,9.73-1.27,3.18,.85,6.03,2.91,7.8,5.96,1.76,3.05,2.12,6.55,1.27,9.73-.85,3.18-2.91,6.03-5.96,7.8l-1.55,.9,1.51,2.61,1.55-.9c3.78-2.18,6.32-5.71,7.37-9.63,1.05-3.92,.61-8.25-1.57-12.02"/><g class="cls-11"><rect class="cls-12" x="1065.63" y="312.59" width="73.1" height="72.1" transform="translate(341.84 1219.41) rotate(-66.43)"/></g><path class="cls-24" d="M1104.41,317.61l-31.04,17.93c-.82,.47-1.1,1.53-.63,2.35s1.53,1.1,2.35,.63l31.04-17.93c.82-.47,1.1-1.53,.63-2.35-.47-.82-1.53-1.1-2.35-.63"/><path class="cls-24" d="M1129.27,356.87l-34.31,19.82c-.82,.47-1.1,1.53-.63,2.35,.47,.82,1.53,1.1,2.35,.63l34.31-19.82c.82-.47,1.1-1.53,.63-2.35-.47-.82-1.53-1.1-2.35-.63"/><path class="cls-16" d="M1202.47,574.84l-.09-6.7,9.99,.03-.12,5.96c13.76,3.65,10.15,7.63-8.32,5.89-3.77-.66-3.18-2.74-1.46-5.17"/><path class="cls-16" d="M1222.5,387.87c14.18,43.67-1.48,137.21-10.03,180.29h-10.54l-9.21-175.84,29.78-4.45Z"/><path class="cls-16" d="M1185.64,574.84l.09-6.7-9.98,.03,.12,5.96c-13.76,3.65-10.15,7.63,8.32,5.89,3.77-.66,3.18-2.74,1.46-5.17"/><path class="cls-16" d="M1165.6,387.87c-14.18,43.67,1.48,137.21,10.03,180.29h10.54l10.63-175.17-31.2-5.13Z"/><path class="cls-14" d="M1165.6,387.87c14.69,7.69,37.2,7.62,57.01-.26,.91-40.39-3.16-55.29-19.05-57.46-3.39-.31-7.62,.31-11.01,0-25.02,0-29.42,39.42-26.95,57.72"/><path class="cls-18" d="M1200.76,322.82c9.5-4.06,15.11-17.48,.98-20.94-2.45-.4-3.74-1.01-4.61-1.66-6.99-5.17-14.29,3.16-8.86,12.24,4.41,4.09,8.08,6.26,12.48,10.36"/><path class="cls-13" d="M1200.71,327.32l.06-9.11-6.89,5.43-.02,3.68c-9.33,9.43,7.26,10.22,6.85,0"/><path class="cls-13" d="M1203.08,317.54c3.3-4.77,1.89-7.27-1.35-7.03-4.29-.96-10.28-5.94-12.87-2.89-5.19,16.35,4.14,23.11,14.22,9.93"/><path class="cls-14" d="M1138.69,332.1c11.99,8.25,23.62,16.82,34.09,26.45,2.12,.88,4.24,1.02,6.43-2.02l11.31-19.6,17.13,11.73c-18.64,42.75-48.69,38.92-73.26-11.18l4.3-5.39Z"/><path class="cls-13" d="M1136.64,330.69l-1.64-2.89c-1.08-1.4-2.36-.59-2.1,.29,1.23,2.86-.76,3.17-5.57,1.26-1.72-.63-2.65-.05-2.16,1.65,1.11,4.35,5.37,5.18,9.22,6.48l4.3-5.39c-.68-.47-1.37-.94-2.05-1.41"/><path class="cls-4" d="M1010.17,467.94h17c-5.77-56.4-3.23-103.17,23.26-122.26l-.45-3.24c-32.04,18.78-43.04,63.4-39.81,125.5"/><path class="cls-16" d="M1325.29,843.1l-8.22,.03c-2.09-51.2-2.79-102.39-2.44-153.59,2.48-19.23,5.87-36.4,11.13-49.38l21.69-.51-3.26,45.24c-10.06,29.39-13.81,120.26-18.9,158.21"/><path class="cls-16" d="M1404.77,728.41l-4.21,5.16,3.06,6.86,8.62-3.25c12.02,7.27,11.08,.65-2.8-11.28-3.06-2.22-4.12-.38-4.68,2.51"/><path class="cls-16" d="M1366.41,754.49l34.14-20.92,4.63,6.5c-83.5,102.05-56.46-44.82-79.73-100.05,6.85-.16,13.7-.32,20.55-.48,18.46,12.93,28.46,29.21,27.11,50,1.39,0-7.04,57.69-6.7,64.95"/><path class="cls-26" d="M1336.07,599.31c8.51,1.64,27.97-1.11,19.17-14.29-3.48-4.41-6.73-6.87-9.64-7.93,1.39-.48,2.39-1.79,2.39-3.35,0-1.95-1.58-3.54-3.54-3.54s-3.54,1.58-3.54,3.54c0,1.09,.49,2.06,1.27,2.71-10.74,0-15.18,19.84-6.11,22.85"/><path class="cls-23" d="M1266.21,612.27c1.25-1.78,2.5-3.57,3.75-5.35,34.83,6.49,28.71,9.93,59.97-6.06,6.42-2.59,14.56,5.28,6.4,14.62-19.98,16.65-54.18,23.75-70.11-3.21"/><path class="cls-13" d="M1266.51,611.82c-2.92-.31-6.31-.25-7.78-3.15-.62-1.13-.05-1.68,1.26-1.51,3.17,.5,4.62,.18,4.14-1.07h0c-1.17-1.57,.2-1.94,1.03-1.24,.54,.6,1.08,1.19,1.62,1.79l2.8,.85-3.08,4.33Z"/><path class="cls-23" d="M1325.76,640.16c-.44-21.18-1.44-43.25,17.47-39.66,3.29,.41,6.58,.82,9.86,1.23,13.77,4.44,1.63,22.14-5.71,38.8-8.21,2.77-14.09,2.1-21.63-.37"/><path class="cls-13" d="M1346.07,596.07l-.32,5.04c-1.51,9.48-13.49,5.86-4.93-.62l.73-4.94,4.52,.51Z"/><path class="cls-13" d="M1349.83,591.17c2.85-4.22,.55-6.18-.78-4.2-2.99-9.09-12.28-6.91-12.02,1.6,.38,12.29,12.52,10.04,12.81,2.6"/><path class="cls-27" d="M1346.03,596.74s-1.97,2.04-4.93,1.9l.26-1.8c1.51,.63,3.2,.54,4.67-.1"/><path class="cls-16" d="M1326.08,849.71l-.79-6.61-8.22,.03-2.49,5.88c-13.58,3.6-8.16,7.53,10.06,5.81,3.72-.66,3.14-2.7,1.44-5.11"/><path class="cls-23" d="M1412.7,575.93l-3.06-1.14c-25,25.1-21.07,23.32-55.89,27.87-6.75,1.51-9,12.61,3.02,15.67,25.9,2.38,49.35-6.7,55.93-42.4"/><path class="cls-13" d="M1409.63,574.79c.1-.91,.24-2.02,.34-2.92,.77-7.64,4.57-6.46,5.15-1.78l-2.47,5.93-3.03-1.23Z"/><path class="cls-20" d="M1120.11,812.88c39.48,0,71.48,2.85,71.48,6.37s-32,6.37-71.48,6.37-71.48-2.85-71.48-6.37,32-6.37,71.48-6.37"/><path class="cls-15" d="M1191.59,830.63c0,3.52-32,6.37-71.48,6.37s-71.48-2.86-71.48-6.37v-11.38c0,3.52,32,6.37,71.48,6.37s71.48-2.85,71.48-6.37v11.38Z"/><path class="cls-20" d="M1183.62,833.56c-2.57,.44-5.71,.86-9.33,1.23v-11.38c3.62-.38,6.76-.79,9.33-1.23v11.38Z"/><path class="cls-20" d="M1119.65,837.01c-7.04,0-13.84-.1-20.26-.27v-11.38c6.42,.17,13.22,.27,20.26,.27v11.38Z"/><path class="cls-20" d="M1120.11,814.26c30.89,0,55.93,2.23,55.93,4.99s-25.04,4.99-55.93,4.99-55.93-2.23-55.93-4.99,25.04-4.99,55.93-4.99"/><path class="cls-20" d="M1120.11,798.97c39.48,0,71.48,2.85,71.48,6.37s-32,6.37-71.48,6.37-71.48-2.85-71.48-6.37,32-6.37,71.48-6.37"/><path class="cls-15" d="M1191.59,816.72c0,3.52-32,6.37-71.48,6.37s-71.48-2.85-71.48-6.37v-11.38c0,3.52,32,6.37,71.48,6.37s71.48-2.85,71.48-6.37v11.38Z"/><path class="cls-20" d="M1183.62,819.65c-2.57,.44-5.71,.86-9.33,1.23v-11.38c3.62-.38,6.76-.79,9.33-1.23v11.38Z"/><path class="cls-20" d="M1119.65,823.1c-7.04,0-13.84-.1-20.26-.27v-11.38c6.42,.17,13.22,.27,20.26,.27v11.38Z"/><path class="cls-20" d="M1120.11,800.36c30.89,0,55.93,2.23,55.93,4.99s-25.04,4.99-55.93,4.99-55.93-2.23-55.93-4.99,25.04-4.99,55.93-4.99"/><path class="cls-20" d="M1120.11,785.06c39.48,0,71.48,2.85,71.48,6.37s-32,6.37-71.48,6.37-71.48-2.85-71.48-6.37,32-6.37,71.48-6.37"/><path class="cls-15" d="M1191.59,802.82c0,3.52-32,6.37-71.48,6.37s-71.48-2.85-71.48-6.37v-11.38c0,3.52,32,6.37,71.48,6.37s71.48-2.85,71.48-6.37v11.38Z"/><path class="cls-20" d="M1183.62,805.74c-2.57,.44-5.71,.86-9.33,1.23v-11.38c3.62-.37,6.76-.79,9.33-1.23v11.38Z"/><path class="cls-20" d="M1119.65,809.19c-7.04,0-13.84-.1-20.26-.27v-11.38c6.42,.17,13.22,.27,20.26,.27v11.38Z"/><path class="cls-20" d="M1120.11,786.45c30.89,0,55.93,2.23,55.93,4.99s-25.04,4.99-55.93,4.99-55.93-2.23-55.93-4.99,25.04-4.99,55.93-4.99"/><path class="cls-20" d="M1120.11,771.15c39.48,0,71.48,2.85,71.48,6.37s-32,6.37-71.48,6.37-71.48-2.85-71.48-6.37,32-6.37,71.48-6.37"/><path class="cls-15" d="M1191.59,788.91c0,3.52-32,6.37-71.48,6.37s-71.48-2.85-71.48-6.37v-11.38c0,3.52,32,6.37,71.48,6.37s71.48-2.85,71.48-6.37v11.38Z"/><path class="cls-20" d="M1183.62,791.84c-2.57,.44-5.71,.86-9.33,1.23v-11.38c3.62-.37,6.76-.79,9.33-1.23v11.38Z"/><path class="cls-20" d="M1119.65,795.28c-7.04,0-13.84-.1-20.26-.27v-11.38c6.42,.17,13.22,.27,20.26,.27v11.38Z"/><path class="cls-20" d="M1120.11,772.54c30.89,0,55.93,2.23,55.93,4.99s-25.04,4.99-55.93,4.99-55.93-2.23-55.93-4.99,25.04-4.99,55.93-4.99"/><path class="cls-20" d="M1120.11,757.25c39.48,0,71.48,2.85,71.48,6.37s-32,6.37-71.48,6.37-71.48-2.85-71.48-6.37,32-6.37,71.48-6.37"/><path class="cls-15" d="M1191.59,775c0,3.52-32,6.37-71.48,6.37s-71.48-2.85-71.48-6.37v-11.38c0,3.52,32,6.37,71.48,6.37s71.48-2.85,71.48-6.37v11.38Z"/><path class="cls-20" d="M1183.62,777.93c-2.57,.44-5.71,.86-9.33,1.23v-11.38c3.62-.37,6.76-.79,9.33-1.23v11.38Z"/><path class="cls-20" d="M1119.65,781.37c-7.04,0-13.84-.1-20.26-.27v-11.38c6.42,.17,13.22,.27,20.26,.27v11.38Z"/><path class="cls-20" d="M1120.11,758.63c30.89,0,55.93,2.23,55.93,4.99s-25.04,4.99-55.93,4.99-55.93-2.23-55.93-4.99,25.04-4.99,55.93-4.99"/><path class="cls-20" d="M1120.11,743.34c39.48,0,71.48,2.85,71.48,6.37s-32,6.37-71.48,6.37-71.48-2.85-71.48-6.37,32-6.37,71.48-6.37"/><path class="cls-15" d="M1191.59,761.09c0,3.52-32,6.37-71.48,6.37s-71.48-2.85-71.48-6.37v-11.38c0,3.52,32,6.37,71.48,6.37s71.48-2.85,71.48-6.37v11.38Z"/><path class="cls-20" d="M1183.62,764.02c-2.57,.44-5.71,.86-9.33,1.23v-11.38c3.62-.37,6.76-.79,9.33-1.23v11.38Z"/><path class="cls-20" d="M1119.65,767.47c-7.04,0-13.84-.1-20.26-.27v-11.38c6.42,.17,13.22,.27,20.26,.27v11.38Z"/><path class="cls-20" d="M1120.11,744.72c30.89,0,55.93,2.23,55.93,4.99s-25.04,4.99-55.93,4.99-55.93-2.23-55.93-4.99,25.04-4.99,55.93-4.99"/><path class="cls-20" d="M1120.11,729.43c39.48,0,71.48,2.85,71.48,6.37s-32,6.37-71.48,6.37-71.48-2.85-71.48-6.37,32-6.37,71.48-6.37"/><path class="cls-15" d="M1191.59,747.19c0,3.52-32,6.37-71.48,6.37s-71.48-2.85-71.48-6.37v-11.38c0,3.52,32,6.37,71.48,6.37s71.48-2.85,71.48-6.37v11.38Z"/><path class="cls-20" d="M1183.62,750.11c-2.57,.44-5.71,.86-9.33,1.23v-11.38c3.62-.38,6.76-.79,9.33-1.23v11.38Z"/><path class="cls-20" d="M1119.65,753.56c-7.04,0-13.84-.1-20.26-.27v-11.38c6.42,.17,13.22,.27,20.26,.27v11.38Z"/><path class="cls-20" d="M1120.11,730.82c30.89,0,55.93,2.23,55.93,4.99s-25.04,4.99-55.93,4.99-55.93-2.23-55.93-4.99,25.04-4.99,55.93-4.99"/><path class="cls-20" d="M1120.11,715.52c39.48,0,71.48,2.85,71.48,6.37s-32,6.37-71.48,6.37-71.48-2.85-71.48-6.37,32-6.37,71.48-6.37"/><path class="cls-15" d="M1191.59,733.28c0,3.52-32,6.37-71.48,6.37s-71.48-2.85-71.48-6.37v-11.38c0,3.52,32,6.37,71.48,6.37s71.48-2.85,71.48-6.37v11.38Z"/><path class="cls-20" d="M1183.62,736.21c-2.57,.44-5.71,.86-9.33,1.23v-11.38c3.62-.38,6.76-.79,9.33-1.23v11.38Z"/><path class="cls-20" d="M1119.65,739.65c-7.04,0-13.84-.1-20.26-.27v-11.38c6.42,.17,13.22,.27,20.26,.27v11.38Z"/><path class="cls-20" d="M1120.11,716.91c30.89,0,55.93,2.23,55.93,4.99s-25.04,4.99-55.93,4.99-55.93-2.23-55.93-4.99,25.04-4.99,55.93-4.99"/><path class="cls-20" d="M1120.11,701.62c39.48,0,71.48,2.85,71.48,6.37s-32,6.37-71.48,6.37-71.48-2.85-71.48-6.37,32-6.37,71.48-6.37"/><path class="cls-15" d="M1191.59,719.37c0,3.52-32,6.37-71.48,6.37s-71.48-2.85-71.48-6.37v-11.38c0,3.52,32,6.37,71.48,6.37s71.48-2.85,71.48-6.37v11.38Z"/><path class="cls-20" d="M1183.62,722.3c-2.57,.44-5.71,.86-9.33,1.23v-11.38c3.62-.37,6.76-.79,9.33-1.23v11.38Z"/><path class="cls-20" d="M1119.65,725.74c-7.04,0-13.84-.1-20.26-.27v-11.38c6.42,.17,13.22,.27,20.26,.27v11.38Z"/><path class="cls-20" d="M1120.11,687.71c39.48,0,71.48,2.85,71.48,6.37s-32,6.37-71.48,6.37-71.48-2.85-71.48-6.37,32-6.37,71.48-6.37"/><path class="cls-20" d="M1191.59,705.46c0,3.52-32,6.37-71.48,6.37s-71.48-2.85-71.48-6.37v-11.38c0,3.52,32,6.37,71.48,6.37s71.48-2.85,71.48-6.37v11.38Z"/><path class="cls-20" d="M1183.62,708.39c-2.57,.44-5.71,.86-9.33,1.23v-11.38c3.62-.37,6.76-.79,9.33-1.23v11.38Z"/><path class="cls-20" d="M1119.65,711.84c-7.04,0-13.84-.1-20.26-.27v-11.38c6.42,.17,13.22,.27,20.26,.27v11.38Z"/><path class="cls-15" d="M1120.11,689.09c30.89,0,55.93,2.23,55.93,4.99s-25.04,4.99-55.93,4.99-55.93-2.23-55.93-4.99,25.04-4.99,55.93-4.99"/></g></svg>