<?xml version="1.0" encoding="UTF-8"?><svg id="Layer_1" xmlns="http://www.w3.org/2000/svg" xmlns:xlink="http://www.w3.org/1999/xlink" viewBox="0 0 1920 1080"><defs><style>.cls-1{fill:none;}.cls-2{clip-path:url(#clippath);}.cls-3{fill:#026841;}.cls-4{fill:#008f5d;}.cls-5{fill:#f5f5f5;}.cls-6{fill:#877c65;}.cls-7{fill:#2f5959;}.cls-8{fill:#8f2f1b;}.cls-9{fill:#d0eae0;}.cls-10{fill:#accdc4;}.cls-11{fill:#114344;}.cls-12{fill:#431c26;}.cls-13{fill:#477070;}.cls-14{fill:#3a1e27;}.cls-15{fill:#261016;}</style><clipPath id="clippath"><path class="cls-1" d="M1084.03,388.16c35.79-5.22,73.93-14.09,118.09-25.78,115.94-30.66,203.83-32.46,282.36,89.18,43.81,67.87,22.8,166.46-27.03,225.55-59.3,70.32-168.1,77.81-248.99,104.29-122.29,40.04-244.54,107.96-376.67,101.49-101.57-4.97-259.04-54.12-327.95-131.84-134.52-151.74-83.37-369.99,124.48-395.11,152.89-18.47,304.33,54.29,455.7,32.21Z"/></clipPath></defs><g><g><path class="cls-15" d="M733.92,647.41c-7.43-16.75-26.06-28.89-42.66-13.75-18.33,16.73-13.74,54.62-16.34,77.03l8,32.72,15.61,6.56,31.23-3.28s10.74-31.08,9.18-35.99c-5.14-16.19,1.5-35.99-1.79-52.87-.74-3.77-1.83-7.27-3.22-10.41Z"/><path class="cls-4" d="M710.67,633.38c10.76-19,27.41-27.32,40.13-27.73,.96-.03,190.88-6.19,190.88-6.19l37.71-21.03,3.54,107.6-18.85,50.71-278.09,1.24c4.9-22.7,7.41-47.67,14.74-69.59,1.56-4.68,5.24-26.71,9.94-35.02Z"/><path class="cls-15" d="M1016.53,645.87c-2.74-7.61-7.12-13.91-14.09-17.1-19.58-8.97-44.75,4.05-46.05,29.52-1.22,24.02-11.2,53.55-2.25,76.11,7.35,18.53,32.17,35.2,50.81,21.42,17.25-12.74,15.69-46.57,15.94-65.27,.16-11.66,.76-30.45-4.36-44.68Z"/><polygon class="cls-4" points="755.5 499.28 755.07 554.92 918.7 558.65 916.09 500.51 755.5 499.28"/><polygon class="cls-4" points="733.07 646.44 898.81 648.08 898.81 552.45 740.15 553.27 733.07 646.44"/><polygon class="cls-10" points="750.89 563.13 746.93 637.35 888 639.05 886.3 560.86 750.89 563.13"/><polygon class="cls-3" points="898.08 648.94 980.63 615.38 980.56 579.67 955.81 496.81 915.3 501.33 918.11 545.04 898.36 552.58 898.08 648.94"/><polygon class="cls-4" points="544.57 696.73 1062.19 707.69 1057.47 759.18 540.64 755.9 544.57 696.73"/><path class="cls-15" d="M1088.68,720.19c-1.68-5.35-4.96-9.68-10.31-12.03-25.59-11.24-26.62,51.53-16.36,63.36,11.72,13.51,24.7,5.8,28.3-9.44,1.98-8.49,1.03-33.4-1.64-41.89Z"/><polygon class="cls-14" points="542.21 679.42 1066.11 689.31 1066.9 703.33 541.42 695.9 542.21 679.42"/><g><polygon class="cls-14" points="552.85 659.24 1066.6 666.5 1066.74 661.91 552.85 655.75 552.85 659.24"/><polygon class="cls-14" points="551.67 668.52 1066.93 675.54 1066.15 671.18 552.55 664.57 551.67 668.52"/><polygon class="cls-14" points="552.62 678.33 1067.17 685.6 1066.96 681.09 552.26 674.92 552.62 678.33"/><polygon class="cls-12" points="552.85 655.75 550.98 678.59 554.78 678.59 556.74 656.33 552.85 655.75"/><polygon class="cls-14" points="637.51 657.17 637.64 677.15 642.35 677.97 641.44 657.25 637.51 657.17"/><polygon class="cls-14" points="719.98 658.82 719.97 679.67 724.18 678.41 723.9 658.83 719.98 658.82"/><polygon class="cls-14" points="803.64 660.47 803.63 681.32 807.83 680.06 807.56 660.48 803.64 660.47"/><polygon class="cls-14" points="905.36 661.29 905.34 682.14 909.55 680.88 909.27 661.3 905.36 661.29"/><polygon class="cls-14" points="965.05 662.53 965.04 683.38 969.24 682.12 968.97 662.54 965.05 662.53"/><polygon class="cls-12" points="1062.84 662.94 1062.83 683.79 1067.03 682.53 1066.76 662.95 1062.84 662.94"/></g><g><polygon class="cls-12" points="541.7 737.7 1065.88 743.91 1065.08 740.06 541.7 734.61 541.7 737.7"/><polygon class="cls-14" points="540.5 745.9 1065.52 752.12 1064.72 748.26 540.5 742.82 540.5 745.9"/><polygon class="cls-14" points="541.1 754.65 1066.11 760.87 1065.31 757.01 541.1 751.57 541.1 754.65"/><polygon class="cls-12" points="541.7 734.61 538.8 755.13 543.12 754.72 545.67 735.12 541.7 734.61"/><polygon class="cls-12" points="627.96 735.86 628.81 755.06 632.58 755.71 631.97 735.94 627.96 735.86"/><polygon class="cls-14" points="712 737.32 711.99 755.77 716.27 754.66 715.99 737.34 712 737.32"/><polygon class="cls-14" points="797.23 738.78 797.23 757.23 801.51 756.11 801.23 738.79 797.23 738.78"/><polygon class="cls-14" points="900.88 739.51 900.87 757.96 905.15 756.84 904.87 739.52 900.88 739.51"/><polygon class="cls-14" points="961.7 740.61 961.69 759.05 965.98 757.94 965.69 740.62 961.7 740.61"/><polygon class="cls-12" points="1061.34 740.97 1061.33 759.41 1065.62 758.3 1065.34 740.98 1061.34 740.97"/></g><g><polygon class="cls-14" points="546.33 702.36 1066.11 708.41 1066.49 704.72 546.33 699.28 546.33 702.36"/><polygon class="cls-14" points="545.14 710.56 1066.93 716.78 1066.13 712.92 545.14 707.48 545.14 710.56"/><polygon class="cls-14" points="545.73 719.32 1066.25 725.72 1066.73 721.67 545.73 716.23 545.73 719.32"/><polygon class="cls-12" points="545.74 699.07 538.8 754.44 542.99 753.89 549.8 699.48 545.74 699.07"/><polygon class="cls-14" points="632.06 700.53 632.4 721.58 636.65 720.37 636.04 700.6 632.06 700.53"/><polygon class="cls-14" points="715.58 701.98 715.57 720.43 719.83 719.32 719.55 702 715.58 701.98"/><polygon class="cls-14" points="800.3 703.45 800.28 721.89 804.54 720.78 804.26 703.46 800.3 703.45"/><polygon class="cls-14" points="903.3 704.17 903.29 722.62 907.55 721.51 907.27 704.19 903.3 704.17"/><polygon class="cls-14" points="963.75 705.27 963.74 723.71 968 722.6 967.72 705.28 963.75 705.27"/><polygon class="cls-12" points="1062.78 705.63 1062.77 724.08 1066.5 761.04 1066.75 705.64 1062.78 705.63"/></g><g><polygon class="cls-14" points="543.86 720.96 1066.11 727.37 1066.49 723.32 543.86 717.87 543.86 720.96"/><polygon class="cls-14" points="542.66 729.16 1066.92 735.38 1066.12 731.52 542.66 726.08 542.66 729.16"/><polygon class="cls-14" points="543.26 737.91 1067.52 744.13 1066.73 740.27 543.26 734.83 543.26 737.91"/><polygon class="cls-12" points="543.86 717.87 541.42 738.81 545.82 738.07 547.82 718.39 543.86 717.87"/><polygon class="cls-14" points="630 719.13 630.33 740.17 634.6 738.97 634 719.2 630 719.13"/><polygon class="cls-14" points="713.91 720.58 713.9 739.03 718.18 737.91 717.9 720.6 713.91 720.58"/><polygon class="cls-14" points="799.03 722.04 799.02 740.49 803.3 739.37 803.01 722.06 799.03 722.04"/><polygon class="cls-14" points="902.52 722.77 902.51 741.22 906.79 740.1 906.51 722.79 902.52 722.77"/><polygon class="cls-14" points="963.26 723.87 963.25 742.31 967.53 741.2 967.25 723.88 963.26 723.87"/><polygon class="cls-12" points="1062.77 704.87 1062.28 761.04 1067.39 761.04 1066.6 704.77 1062.77 704.87"/></g><polygon class="cls-3" points="755.5 499.28 915.3 501.33 955.81 496.81 790.42 494.32 755.5 499.28"/><path class="cls-15" d="M895.72,552.46l39.93,4.18c.07,8.26,5.66,43.31-5.48,44.68-16.97,2.08-13.16-44-2.01-42.08-3.11-.54-32.41-6.84-33.02-5.55,.05-.1,.58-1.23,.58-1.23Z"/><path class="cls-15" d="M743.06,552.46l-39.93,4.18c-.09,9.63-.75,19.43-.29,29.04,.47,9.78,6.81,25.81,15.9,9.2,2.68-4.9,1.77-37.32-8.12-35.66,.75-.12,33.02-5.53,33.02-5.53l-.58-1.23Z"/></g><path class="cls-3" d="M956.99,554.55s.04,0,.05,0c9.83-.91,19.62-2.33,29.42-3.53,16.57-2.04,204.97-23.89,204.88-25.12,.18,2.38,3.06,39.46,3.06,39.46l-15.95,2.47-9.2-18.96c-8.83,2.04-17.66,4.09-26.49,6.12-61.87,14.31-124.17,27.38-185.71,43.01-11.53-2.58-10.65-42.33-.05-43.45Z"/><path class="cls-9" d="M1142.14,904.02c21.85-.22,43.55-1.28,64.87-3.01,86.6-7.01,239.42-5.08,249.44-118.48,4.27-48.34-26.11-94.29-39.07-138.88-40.73-140.23,86.34-419.56-96.67-492.29-87.56-34.8-183.25-28.8-277.8,5.96-50.91,18.72-109.85,23.09-159.84,13.98-54.63-9.96-85.29-53.64-135.28-71.28-35.28-12.45-90.1-15.66-129.03-12.51-74.97,6.05-151.02,70.35-178.14,140.28-31.56,81.4,37.29,141.79,36.11,222.22-.65,44.24-34.96,77.86-41.41,120.64-10.69,70.82,33.56,125.4,86.64,167,134.48,105.39,269.98,88.16,420.24,138.47,63.1,21.13,132.19,28.58,199.93,27.9Z"/></g><path class="cls-7" d="M900.27,409.81c21.67,1.9,43.4,3.29,65.14,2.55-12.64-36.07-76.58-47.82-97.89-78.68-8.78-12.71-5.34-28.34-20.75-35.37-13.94-6.36-30.11,1.8-44.45,1.54-14.99-.28-24.34-14.43-39.06-17.09-19.87-3.6-26.89,12.14-42.13,22.68-29.95,20.72-56.58-6.44-83.25-21.83-33.16-19.14-76.15-4.15-96,33.22-30.83,58.04-84.18,112.47,38.95,112.18,70.14-.17,134.59-20.59,203.37-25.16,38.29-2.54,77.08,2.55,116.08,5.97Z"/><path class="cls-11" d="M1084.03,388.16c35.79-5.22,73.93-14.09,118.09-25.78,115.94-30.66,203.83-32.46,282.36,89.18,43.81,67.87,22.8,166.46-27.03,225.55-59.3,70.32-168.1,77.81-248.99,104.29-122.29,40.04-244.54,107.96-376.67,101.49-101.57-4.97-259.04-54.12-327.95-131.84-134.52-151.74-83.37-369.99,124.48-395.11,152.89-18.47,304.33,54.29,455.7,32.21Z"/><path class="cls-3" d="M857.72,447.29c21.23,8.13,58.55-5.41,79.54-7.3,48.17-4.34,96.04,8.05,145.4,2.44,42.86-4.88,95.8,2.22,134.31-13.23-2.66-3.87-8.47-5.45-15.75-6.67-10.98-1.83-28.31-.68-39.93-.79-28.88-.27-57.43,2.83-86.17,3.11-31.4,.31-61.4-2.42-92.87,1.33-31.01,3.69-62.05,1.53-93.11,4.2-11.45,.99-54.97,4.42-34.64,15.42,1.03,.55,2.11,1.05,3.23,1.48Z"/><g class="cls-2"><path class="cls-13" d="M1690.92,687.13c-18.24,1-99.01-78.64-122.07-92.38-41.24-24.58-83.77-39.33-129.75-55.66-71.54-25.41-144.62-48.07-216.84-72.04,92.49,18.73,184.99,37.42,277.47,56.18,66.47,13.48,120.02,27.29,181.22,53.71,46.85,20.23,166.63,101.65,206.39,99.48-.03,0-196.26,10.72-196.42,10.73Z"/><path class="cls-13" d="M1444.88,698.76c-12.59,2.3-80.97-70.51-99.14-82.41-32.5-21.29-64.43-32.79-98.99-45.6-53.79-19.92-108.25-37.02-162.3-55.47,67.42,11.81,134.84,23.58,202.26,35.42,48.46,8.51,87.94,18.28,134.66,39.95,35.77,16.59,131.67,88.34,159.12,83.32-.02,0-135.48,24.77-135.6,24.79Z"/><path class="cls-13" d="M1285.23,792.45c-12.69,1.19-91.51-96.95-107.2-110.57-28.06-24.37-57.26-38.82-88.81-54.82-49.09-24.9-99.32-47.01-148.93-70.45,63.81,17.94,127.62,35.84,191.43,53.81,45.86,12.92,82.73,26.29,124.62,52.32,32.06,19.92,113.34,100.83,141.01,98.23-.02,0-112,31.47-112.12,31.48Z"/></g><path class="cls-13" d="M923.31,894.79c-71.02,8.94-138.84,26.39-215.55,25.27-63.3-.92-123.11-7.66-172.21-50.33-152.19-132.27,79.77-156.79,177.48-132.26,63.41,15.92,93.7,8.67,156.4-8.4,78.28-21.32,247.52-25.6,300.48,56.61,65.2,101.19-108.91,104.58-167.94,104.02-27.02-.26-53.05,1.86-78.67,5.09Z"/><path class="cls-5" d="M1108.69,226.1c7.55,1.32,12.75,3.28,21.85,3.29,59.8,.02,123.75-7.74,182.94,.15,7.16,.95,14.97,1.14,21.4-1.14,6.43-2.28,10.72-7.66,7.81-12.07-2.1-3.18-7.27-5.08-12.45-5.74-5.18-.66-10.51-.32-15.79-.31-11.6,.02-23.21-1.59-33.81-4.69-5.67-1.66-11.05-3.74-16.81-5.25-10.08-2.65-21.24-3.51-31.99-2.46-10.51,1.03-20.41,3.82-30.63,5.74-17.62,3.31-36.09,4-54.14,6.06-12.8,1.47-26.63,3.24-37.75,7.98-6.55,2.8-1.37,8.31-.65,8.44Z"/><g><path class="cls-8" d="M1030.75,319.03l-40.44,21.14-6.56,22.3,109.77,32.84,32.68-2.04,11.32-33.54,51.08,5.84,.81-17.81s1.25-18.59-7.45-20.14c-18.34-3.27-25.37-3.62-25.37-3.62l-45.2-3.42-8.23-46.42,4.99-14.67-85.2,5.07,.52,12.03,5.79,7.86,1.5,34.61Z"/><path class="cls-15" d="M987.17,377.33c4.81-59.49,96.2-69.48,105.11-8.68,3.74,25.5-5.54,55.23-31.82,64.45-16.52,5.79-44.75-.82-57.94-12.21-11.91-10.28-16.68-27.07-15.34-43.55Z"/><path class="cls-10" d="M1019.06,384.3c-.03-.55-.06-1.11-.06-1.69-.18-23.96,33.15-31.89,44.14-11.04,15.79,29.94-41.88,44.92-44.08,12.73Z"/><path class="cls-15" d="M1121.99,383.93c.59-5.26,2.03-10.37,4.25-14.88,17.61-35.78,73.49-24.64,73.63,15.63,.05,12.62-5.51,31.07-17.62,38.18-10.36,6.08-31.89,4.92-42.28-.15-14.27-6.96-19.7-23.51-17.98-38.78Z"/><path class="cls-10" d="M1145.75,388.93c.03-.88,.11-1.79,.22-2.75,2.4-19.46,24.91-23.33,32.86-5.82,10.74,23.66-33.98,32.42-33.08,8.58Z"/><polygon class="cls-10" points="1045.55 274.06 1046.39 314.77 1099.98 323.51 1089.6 273.24 1045.55 274.06"/><polygon class="cls-15" points="994.85 389.4 875.82 409.93 874.75 403.98 991.89 383.34 994.85 389.4"/><polygon class="cls-15" points="997.98 402.7 872.64 424.65 871.58 418.7 994.95 396.67 997.98 402.7"/><polygon class="cls-15" points="1000.67 410.92 868.18 434.36 869.54 427.08 997.57 404.9 1000.67 410.92"/><polygon class="cls-15" points="886.13 422.66 891.18 421.7 887.46 402.19 883.42 402.96 886.13 422.66"/><polygon class="cls-15" points="932.52 414.12 937.56 413.16 933.84 393.65 929.8 394.42 932.52 414.12"/><polygon class="cls-15" points="969.3 407.52 974.35 406.55 970.63 387.04 966.59 387.81 969.3 407.52"/><polygon class="cls-15" points="868.39 432.51 873.1 433.42 878.67 404.91 874.9 404.17 868.39 432.51"/><g><path class="cls-15" d="M895.88,422.78c1.39-10.46,9.3-20.62,20.74-20.48,9.49,.12,13.17,5.1,17.34,12.46,9.11,16.1-11.48,34.64-26.74,28.85-9.24-3.51-12.47-12.27-11.34-20.84Z"/><path class="cls-10" d="M908.5,425.38c-3.01-9.7,18.21-14.09,14.51,1.74,0,0-2.8,3.95-2.8,3.95-7.22,3.21-10.79-2.98-11.65-5.52-.02-.05-.04-.11-.06-.17Z"/></g></g><path class="cls-5" d="M705.68,147.94c-.29-.05-.56-.1-.82-.14-33.25-5.33-42.98,10.17-74.45,8.22-31.37-1.94-50.53-13.29-85.28-8.64-13.31,1.78-19.8,8.79-30.36,10.26-12.59,1.75-19.86-2.66-30.91-3.53-45.89-3.62-112.55,21.44-37.24,29.08,36.85,3.74,74.58-4.72,111.44-4.71,68.83,.02,139.42,2.46,208.05,.06,6.12-14.97-36.94-26.33-60.42-30.6Z"/><g><path class="cls-11" d="M770.5,277.5c-.47-3.05-1.48-6.1-3.58-8.23-2.79-2.83-6.96-3.52-10.84-3.48-3.88,.04-7.8,.67-11.6-.09-1.16-.23-2.36-.63-3.16-1.54-3.23-3.68,.95-8.91-2.87-12.81-6.88-7.02-13.16-13.53-23.67-12.63-13.43,1.16-17.95,15.3-19.07,27.37-.25,2.67-.37,5.4,.19,8.02,.56,2.62,1.88,5.15,4.01,6.62,2.29,1.6,5.18,1.79,7.83,2.59,3.09,.93,5.12,2.23,6.69,5.1,2.04,3.74,1.18,6.67,1.11,10.77-.05,3.23,1.43,9.16,3.38,11.7,1.12,1.47,2.62,2.55,4.11,3.59,2.16,1.52,4.36,3,6.71,4.17,6.03,3.01,13.02,3.84,19.54,2.33,.8-.19,1.63-.42,2.25-.99,.73-.67,1.07-1.68,1.64-2.51,1.93-2.81,5.9-2.84,8.6-4.82,2.46-1.8,3.59-4.97,4.55-7.96,2.79-8.61,5.45-17.65,4.25-26.66-.03-.19-.05-.38-.08-.57Z"/><g><path class="cls-11" d="M770.57,321.6c3.11-1.84,5.94-4.92,8.94-6.68,7.89-4.62,17.9-4.49,25.13-10.17,3.46-2.72,5.99-6.58,7.91-10.65,3.12-6.6,4.91-14.08,5.29-21.44,.27-5.34-.87-10.61-1.51-15.83-.62-5.08-3.33-9.9-7.54-12.56-3.17-2-6.91-2.75-10.6-3.05-14.15-1.16-25.47,4.31-35.2,14.71-3.54,3.78-6.31,8.28-8.8,12.9-6.61,12.24-11.51,25.98-10.94,40.04,.05,1.18,.15,2.42,.79,3.4,.56,.85,1.45,1.39,2.31,1.89,2.76,1.61,5.52,3.22,8.28,4.84,3.77,2.2,8.79,5.11,13.28,3.79,.91-.27,1.79-.68,2.64-1.19Z"/><path class="cls-7" d="M695.41,240.75c-1.6,3.32-2.15,6.51-1.64,11.16,.18,1.66,.59,3.41,1.75,4.54,.83,.8,1.94,1.19,3.04,1.43,2.89,.64,5.95,.38,8.71-.73,2.58-1.04,4.86-2.77,7.45-3.74,2.7-1.01,5.69-1.13,8.45-.35,.87,.25,1.74,.59,2.38,1.26,.74,.77,1.08,1.85,1.4,2.89,1.6,5.22,3.39,10.59,7.04,14.5,3.64,3.91,9.67,5.91,14.19,3.17,3.52-2.13,6.02-5.73,10.22-6.63,3.18-.69,8.57-.35,10.54,2.79,1.26,2.01,.97,4.77,2.19,6.8,1.24,2.07,3.81,2.89,6.13,2.68,2.32-.21,4.48-1.26,6.63-2.22,6.94-3.08,14.54-4.76,20.93-9.12,7.16-4.89,10.01-10.49,11.03-19.5,.34-2.97,.52-5.99,.1-8.94-.91-6.31-4.63-11.92-9.41-15.83-4.78-3.91-10.57-6.27-16.45-7.8-2.14-.56-4.33-1.02-6.53-.95-7,.23-13.11,5.76-20.11,5.97-5.89,.17-11.2-3.43-16.82-5.28-6.9-2.27-14.42-1.87-21.43,.02-5.82,1.57-11.87,3.99-17.08,7.16-4.13,2.51-7.12,7.91-9.85,11.94-1.17,1.72-2.12,3.26-2.85,4.77Z"/><path class="cls-6" d="M748.88,307.5c-.04,1.7-.24,4.52,0,4.77-6.04-6.48-12.98-12.03-20.52-16.44-2.77-1.62-5.73-3.18-7.58-5.89,2.01,2.88,4.4,5.47,7.08,7.66,4.14,3.39,8.95,5.83,12.89,9.48,3.05,2.81,5.51,6.32,7.2,10.2,1.87,4.29,2.04,8.16,2.12,12.82,.22,11.57,.44,23.13,.66,34.7,.01,.61,.03,1.25,.28,1.8,.84,1.8,3.34,1.47,5.15,.85-.07-3.02-.14-6.03-.22-9.05-.2-8.55-.41-17.11,.11-25.65,.13-2.19,.6-4.41,.59-6.6,0-1.37-.33-2.61-.05-3.98,.78-3.77,3.8-7.14,6.56-9.47,3.46-2.91,7.46-4.98,11.23-7.42,13.03-8.47,25.97-23.8,24.25-41.04-1.83,1.93-2.07,5.9-2.82,8.41-.96,3.21-2.26,6.31-3.86,9.22-2.96,5.41-7.38,11.42-12.59,14.57-.33-3.19-.4-5.82-1.2-8.98-1-3.92-1.7-7.98-1.31-12.05-1.64,3.56-2.03,7.6-2.06,11.55-.03,3.86,.37,7.84,.02,11.68-.27,2.98-2.53,4.32-4.93,5.63-3.76,2.05-7.39,4.35-10.88,6.88-2.13,1.54-4.3,3.29-5.37,5.77,.18-2.87-.38-5.7,.12-8.5,.54-3.04,1.62-5.94,2.8-8.75,2.38-5.67,5.41-11.23,6.19-17.47-1.49,5.82-5.11,10.72-8.65,15.46-.73,.98-1.7,2.07-2.87,1.9-1.27-.19-1.91-1.76-1.91-3.11-.01-2.41-.07-4.79,.69-7.08,.87-2.62,2.18-5.03,3.27-7.54,1.65-3.8,3.29-8.09,1.99-12.03-1.44,5.83-4.86,11.01-9.41,14.64-.39,.31-.83,.62-1.31,.55-.33-.05-.6-.26-.86-.47-2.07-1.67-4.17-3.81-6.53-4.89-2.52-1.15-4.94-2.19-7.35-3.65-3.65-2.22-7.37-4.49-10.2-7.78-3.61-4.2-5.51-9.76-6.41-15.35,.21,1.31-.3,3.06-.24,4.44,.07,1.61,.3,3.21,.7,4.76,1.57,6.16,6.49,10.67,11.71,13.48-3.77,.42-7.46-1.26-10.73-3.25-7.02-4.27-13.22-10.34-16.81-17.99,2.48,9.63,9.72,17.74,18.69,20.95,4.02,1.44,8.31,1.94,12.33,3.38,5.64,2.02,10.54,6.05,14.02,11.12,2.33,3.39,3.56,6.99,4.38,11.01,.39,1.93,1.28,3.68,1.62,5.64,.04,.2,.04,.61,.03,1.13Z"/></g></g></svg>