<?xml version="1.0" encoding="UTF-8"?><svg id="Layer_1" xmlns="http://www.w3.org/2000/svg" viewBox="0 0 1920 1080"><defs><style>.cls-1{fill:#f79b63;}.cls-2{fill:#036d44;}.cls-3{fill:#008f5d;}.cls-4{fill:#b57a0d;}.cls-5{fill:#d0eae0;}.cls-6{fill:#114344;}.cls-7{fill:#0dbac6;}.cls-8{fill:#3f242c;}.cls-9{fill:#0d3333;}.cls-10{fill:#477070;}.cls-11{fill:#261016;}.cls-12{fill:#3a4c00;opacity:.3;}.cls-13{fill:#fff;font-family:InterV, 'Inter V';font-size:54.36px;font-variation-settings:'wght' 400, 'slnt' 0;}</style></defs><g><path class="cls-5" d="M1060.44,834.09c18.91,.59,37.68,.47,56.08-.23,74.75-2.83,207.18,4.25,211.82-91.15,1.98-40.67-25.98-80.54-38.79-118.65-40.28-119.85,59.82-351.17-101.28-419.1-77.08-32.5-159.74-30.85-240.39-4.87-43.43,13.99-94.32,15.58-137.94,6.1-47.67-10.36-75.78-48.33-119.71-65.01-31-11.77-78.59-16.43-112.2-15.17-64.72,2.44-128.3,54.02-149.29,112.09-24.43,67.6,37.35,121.05,39.2,188.92,1.02,37.33-27.5,64.49-31.57,100.38-6.73,59.41,33.53,107.07,81,144.09,120.24,93.78,236.98,84.06,368.92,131.9,55.4,20.09,115.51,28.85,174.16,30.69Z"/><g><g><polygon class="cls-11" points="824.39 976.08 824.39 917.2 1236.1 682.15 1236.1 741.03 824.39 976.08"/><polygon class="cls-11" points="824.39 976.08 412.69 741.03 412.69 682.15 824.39 917.2 824.39 976.08"/><polygon class="cls-6" points="824.39 917.2 412.69 682.15 824.39 447.1 1236.1 682.15 824.39 917.2"/><polygon class="cls-9" points="824.39 939.84 824.39 917.2 1236.1 682.15 1236.1 704.79 824.39 939.84"/><polygon class="cls-9" points="824.39 939.84 412.69 704.79 412.69 682.15 824.39 917.2 824.39 939.84"/></g><g><g><path class="cls-10" d="M980.22,583.78c0-20.23-26.17-37.09-60.87-40.86-12.86-13.12-38.89-22.1-68.93-22.1-35.68,0-65.7,12.66-74.71,29.89-12.07-7.49-33.09-12.46-57.02-12.46-37.45,0-67.8,12.14-67.8,27.12,0,2.97,1.21,5.83,3.42,8.51-37.36,3.4-65.42,17.81-65.42,35.08,0,19.79,36.86,35.84,82.33,35.84,29.41,0,55.21-6.72,69.77-16.82,5.39,1.42,11.26,2.58,17.5,3.45,15.32,16.87,54.59,28.87,100.64,28.87,59.38,0,107.52-19.95,107.52-44.56,0-2.42-.48-4.79-1.37-7.1,9.38-6.94,14.94-15.54,14.94-24.86Z"/><g><g><path class="cls-11" d="M846.92,598.28c-12.78-9.21-18.07-17.59-24.24-24.12,11.29-14.45,18.21-33.81,18.21-55.1,0-30.31-42.67-46.36-23.25-86.97-14.5-4.25-22.84-20.82-22.84-20.82-13.37,6.74-14.24,26.85-21.94,26.85-12.06,0-23.4,3.74-33.22,10.29-4.55,3.04-13.25-54.64-44.28-18.86-36,41.51,23.9,36.35,18.45,49.31-5.1,12.12-8.97,25.57-8.97,40.2,0,20.99,6.72,40.11,17.73,54.49-7.97,6.51-14.15,15.36-23.76,26.44-7.24,8.36,14.53-8.21,33.58-.86,19.05,7.35,41.3,24.01,60.27,7.75,18.08-15.5,72.19,4.32,54.25-8.61Z"/><path class="cls-8" d="M817.64,432.1c-5.2-1.52-9.6-4.63-13.11-7.99,0,0,0,0,0,.01-.76,3.54-1.67,7.04-2.76,10.5-4.46,22.62,.71,45.72,17.45,63.2,6.68,6.98,14.3,12.92,21.6,19.13-1.9-28.96-42.13-45.21-23.17-84.85Z"/><path class="cls-4" d="M729.88,452.49c2.31,1.53,4.82,2.86,7.58,3.93,16.11,6.23,31.68,3.36,45.46-6.9,7.74-5.76,10.56-15.31,17.33-21.82,3.18-3.05,3.7-3.08,.91-7.3-2.07-3.13-4.67-5.75-6.37-9.11-13.37,6.74-14.24,26.85-21.94,26.85-12.06,0-23.4,3.74-33.22,10.29-4.05,2.7-11.37-42.6-34.76-27.52,7.31,11.61,13.7,24.09,25,31.59Z"/><path class="cls-11" d="M804.52,566.79c-19.81-1.95-38.9-12.15-51.95-27.16-8.64-9.93-13.25-20.18-16.43-32.77-3.08-12.22-4.46-23.79-12.88-33.88-5.84-7-14.4-13.38-22.05-18.16-1.81-1.13-16.03-10.01-14.76-12.57-14.02,27.86,32.18,25.17,27.36,36.62-5.1,12.12-8.97,25.57-8.97,40.2,0,20.99,6.62,43.38,17.73,54.49,23.9,23.92,66.98,22.42,100.1,.6,2.67-3.42,5.09-7.12,7.24-11.05-7.79,3.21-16.4,4.57-25.4,3.68Z"/><path class="cls-8" d="M802.02,425.28c-1.72,24.11-1.72,68.45-54.68,61.56,24.54,14.64,65.87-3.44,64.58-28.85-1.29-25.4-9.9-32.72-9.9-32.72Z"/><path class="cls-8" d="M735.48,504.19c6.79,22.08,34.45,50.39,87.74,31.61-18.52,26.64-58.13,25.72-77.51,8.13-19.38-17.6-10.24-39.73-10.24-39.73Z"/><path class="cls-8" d="M767.01,606.07c-4.48-3.43-8.37-7.4-11.5-12.12-3.28-4.94-5.79-11.31-9.74-15.67-5.98-6.61-11.19,4.27-14.43,8.11-2.7,3.19-6.6,5.63-10.4,7.31-7.1,3.15-14.98,4.9-21.88,8.47,4.88-1.4,19.8-8.27,33.35-3.04,14.89,5.75,31.73,17.18,47.43,14.14-4.8-1.41-9.5-4.67-12.83-7.21Z"/><path class="cls-8" d="M848.57,599.54c-5.54-.34-11.02-1.42-16.2-3.5-8.87-3.57-15.01-8.97-21.87-15.31-2.41-2.23-6.24-6.5-9.77-6.75-5.61-.39-3.7,13.09-3.5,16.09,.32,4.89,.48,10.04-1.03,14.46,19.85-10.52,64.08,4.67,52.38-4.99Z"/><path class="cls-8" d="M746.08,565.5c-7.33-1.01-14.11-2.6-19.88-4.54,.97,6.42,8.65,12.22,18.64,13.59,9.99,1.37,18.95-2.14,21.62-8.06-6.08,.31-13.04,.02-20.37-.99Z"/><path class="cls-8" d="M754.93,521.26c-12.02-1.65-23.13-4.26-32.6-7.45,1.59,10.52,14.18,20.03,30.56,22.28,16.38,2.25,31.06-3.51,35.44-13.21-9.97,.51-21.38,.03-33.4-1.63Z"/></g><path class="cls-8" d="M713.82,478.86c-1.07,2.55-2.09,5.17-3.03,7.84,22.83,5.12,53.73,.8,55.46-26.14,.07-1.13,1.43-1.64,2.3-1.03,15.69,10.88,33.62,19.7,52.91,21.31,.5,.04,.99,.06,1.49,.09-8.73-13.28-15.39-27.74-5.31-48.83-14.5-4.25-22.84-20.82-22.84-20.82-13.37,6.74-14.24,26.85-21.94,26.85-12.06,0-23.4,3.74-33.22,10.29-4.55,3.04-13.25-54.64-44.28-18.86-36,41.51,23.9,36.35,18.45,49.31Z"/><g><g><circle class="cls-2" cx="923.22" cy="302.41" r="71.36" transform="translate(418.99 1132.79) rotate(-76.87)"/><circle class="cls-2" cx="813.92" cy="280.61" r="55.38"/><path class="cls-3" d="M853.46,354.47c23.72,23.32,26.15,59.3,5.44,80.36-20.71,21.06-56.73,19.23-80.44-4.1-23.72-23.32-26.15-59.3-5.44-80.36,20.71-21.06,56.73-19.23,80.44,4.1Z"/><path class="cls-2" d="M932.56,252.13c-26.76-63.06-110.57-59.3-128.94,14.09-18.37,73.39,23.99,138.43,92.6,127.66,68.61-10.76,63.43-77.92,36.34-141.75Z"/><path class="cls-3" d="M900.95,302.62c-12.12-13.97-27.48-25.26-45.27-30.84-15.85-4.97-35.74-8.41-52.5-3.76-17.23,72.64,24.98,136.53,93.03,125.86,16.74-2.63,29.08-8.62,37.79-17.09-5.13-27.17-15.13-53.52-33.05-74.17Z"/><path class="cls-2" d="M872.45,299.18c-31.64-41.96-114.9-34.82-127.43,16.71-12.53,51.53,34.82,94.01,102.36,82.86,67.54-11.14,57.1-57.1,25.07-99.58Z"/><path class="cls-2" d="M853.79,296.92c-8.92-35.39-96.57-32.64-108.78,18.97-6.82,28.82,122.66,36.11,108.78-18.97Z"/><path class="cls-2" d="M926.07,239.76c-26.78-41.97-83.23-42.85-110.56-1.31-21.64,36.72,126.75,26.17,110.56,1.31Z"/><ellipse class="cls-2" cx="909.35" cy="379.14" rx="96.18" ry="71.27" transform="translate(-58.79 561.84) rotate(-33.32)"/><path class="cls-2" d="M988.42,328.89c21.62,32.89-39.67,43.31-78.45,50.04-63.29,10.98-85.46-27.58-41.07-56.76,44.39-29.18,97.9-26.17,119.52,6.72Z"/></g><path class="cls-3" d="M954.22,408.92c-50.78,33.38-109.48,33.78-131.1,.89-1.17-1.77-2.17-3.62-3.08-5.5,.57,9.92,3.47,19.35,8.93,27.67,21.62,32.89,75.13,35.9,119.52,6.72,28.7-18.87,46.54-46.57,49.73-72.68-10.43,15.68-25.38,30.66-44,42.91Z"/></g><path class="cls-3" d="M674.75,396.59c-7.32,24.95,4.71,50.44,26.86,56.94,22.15,6.5,46.05-8.45,53.37-33.4,7.32-24.95-4.7-50.44-26.86-56.94-22.15-6.5-46.05,8.46-53.37,33.4Z"/><path class="cls-2" d="M640.75,366.06c5.64-40.69,65.2-67.48,93.37-37.07,28.16,30.42,11.99,77.43-38.37,95.52-50.36,18.09-60.71-17.26-55-58.45Z"/><path class="cls-2" d="M652.63,357.42c-7.37-27.56,53.52-59.03,81.49-28.43,15.62,17.08-70.02,71.32-81.49,28.43Z"/><path class="cls-2" d="M571,429.2c-2.25,30.68,29.49,58.02,70.9,61.05,41.41,3.04,76.8-19.38,79.05-50.06,2.25-30.68-29.49-58.02-70.9-61.05-41.41-3.04-76.8,19.38-79.05,50.06Z"/><path class="cls-2" d="M572.87,430.47c-2.25,30.68,43.56,14.48,72.6,4.32,47.39-16.58,47.86-51.34,6.45-54.38-41.41-3.04-76.8,19.38-79.05,50.06Z"/><path class="cls-3" d="M626.67,472.1c47.37,3.47,87.6-18.58,89.85-49.27,.12-1.65,.11-3.3,0-4.93,3.38,6.99,5,14.53,4.43,22.29-2.25,30.68-37.64,53.1-79.05,50.06-26.77-1.96-49.49-14.09-61.61-30.71,13.09,6.74,29,11.28,46.37,12.55Z"/></g></g><g><path class="cls-12" d="M676.35,683.65c0,20.27-40.71,36.7-90.92,36.7s-90.92-16.43-90.92-36.7,40.7-36.7,90.92-36.7,90.92,16.43,90.92,36.7Z"/><g><circle class="cls-3" cx="555.03" cy="628.53" r="40.62"/><path class="cls-3" d="M657.22,634.08c0,22.44-18.19,40.62-40.62,40.62s-40.62-18.19-40.62-40.62,18.19-40.62,40.62-40.62,40.62,18.19,40.62,40.62Z"/><ellipse class="cls-3" cx="582.79" cy="668.9" rx="73.93" ry="40.62"/><path class="cls-2" d="M630.19,605.03c-17.97-42.35-74.26-39.83-86.59,9.46-12.34,49.29,16.11,92.97,62.19,85.74,46.07-7.23,42.6-52.33,24.41-95.2Z"/><path class="cls-3" d="M608.96,638.94c-8.14-9.38-18.46-16.97-30.4-20.71-10.64-3.34-24-5.65-35.26-2.52-11.57,48.79,16.78,91.69,62.48,84.53,11.24-1.76,19.53-5.79,25.38-11.48-3.45-18.24-10.16-35.94-22.2-49.81Z"/><path class="cls-2" d="M589.82,636.63c-21.25-28.18-77.16-23.38-85.58,11.22-8.42,34.61,23.38,63.13,68.75,55.65,45.36-7.48,38.35-38.35,16.84-66.87Z"/><path class="cls-2" d="M577.29,635.11c-5.99-23.77-64.86-21.92-73.06,12.74-4.58,19.35,82.38,24.25,73.06-12.74Z"/><path class="cls-2" d="M625.83,596.73c-17.99-28.18-55.9-28.78-74.25-.88-14.53,24.66,85.13,17.58,74.25,.88Z"/><path class="cls-2" d="M664.02,637.65c11.56,17.59,1.69,44.5-22.04,60.1-23.74,15.6-52.35,14-63.92-3.59-11.56-17.59-1.69-44.5,22.04-60.1,23.74-15.6,52.35-14,63.92,3.59Z"/><path class="cls-2" d="M663.33,639.03c11.56,17.59-21.21,23.16-41.95,26.76-33.85,5.87-45.7-14.75-21.96-30.36,23.74-15.6,52.35-14,63.92,3.59Z"/><path class="cls-2" d="M645.04,681.82c-27.16,17.85-58.55,18.07-70.11,.48-.62-.95-1.16-1.93-1.65-2.94,.31,5.31,1.85,10.35,4.78,14.8,11.56,17.59,40.18,19.2,63.92,3.59,15.35-10.09,24.89-24.9,26.59-38.87-5.58,8.39-13.57,16.4-23.53,22.95Z"/></g></g><g><path class="cls-10" d="M1177.73,673.46c2.23-2.7,3.47-5.57,3.47-8.55,0-15.35-31.88-27.8-71.2-27.8-31.7,0-58.53,8.09-67.75,19.27-56.57,3.25-99.04,16.97-99.04,33.4,0,18.85,55.9,34.14,124.85,34.14s124.85-15.28,124.85-34.14c0-5.91-5.5-11.47-15.17-16.32Z"/><g><path class="cls-11" d="M1117.35,685.93c-3.32-18.23-24.03-120.99-24.03-120.99l-4.97-9.12c5.8,50.55-9.94,111.05-30.66,131.76,13.26,19.89,62.98,16.57,59.67-1.66Z"/><path class="cls-8" d="M1117.35,685.93c-.42-2.33-1.13-6.04-2.04-10.74-4.45,.79-9.09,.9-13.13,.92-1.56,0-1.3-2.4,.24-2.41,3.8-.02,8.22-.1,12.43-.85-1.37-7.02-3.11-15.87-5.02-25.45-4.18,1.16-8.42,1.34-12.81-.05-1.49-.47-.63-2.73,.85-2.27,3.96,1.26,7.75,1.03,11.49-.05-1.93-9.71-4-20.08-5.99-30.02-.8,.04-1.6,.07-2.4,.08-1.56,.01-1.3-2.4,.24-2.41,.56,0,1.13-.02,1.69-.05-5.11-25.55-9.58-47.69-9.58-47.69l-4.97-9.12c3.79,21.29,6.78,51.02,4.79,77.14,2.18,.11,4.38-.08,6.55-.47,1.54-.28,1.91,2.11,.38,2.39-2.35,.43-4.75,.62-7.13,.5-.81,9.14-2.26,17.8-4.54,25.42,4.99,1.92,10.13,3.17,15.73,2.41,1.55-.21,1.93,2.18,.38,2.39-6.01,.81-11.48-.48-16.83-2.52-2.78,8.44-6.66,15.48-11.9,20.33,11.52,3.85,23.66,5.59,34.92,.09,1.4-.68,2.37,1.53,.97,2.22-12.27,5.99-25.55,3.84-38.04-.51-2.87,2.18-6.1,3.78-9.73,4.65,6.87,8.49,56.76,14.3,53.45-3.93Z"/><g><g><path class="cls-3" d="M1010.41,550.15c-42.9-37.95-35.66-74.14-11.26-106.05,24.4-31.91,3.75-90.09,52.55-126.69,48.8-36.6,84.46,8.45,108.86,44.11,24.4,35.66,55.37,100.42,40.35,145.46-15.02,45.05-68.51,151.09-190.51,43.17Z"/><path class="cls-2" d="M1131.87,516.21c-29.59,0-55.86-10.01-72.46-25.5,3.89,32.27,34.84,57.4,72.46,57.4s68.56-25.14,72.46-57.4c-16.59,15.49-42.87,25.5-72.46,25.5Z"/><path class="cls-2" d="M1037.98,452.64c16.45-.48,43.16-5.67,50.8-22.58-32.58,6.3-61.63-13.67-73.05-41.51-3.23,19.94-4.71,39.21-13.65,53.98,11.06,6.03,22.7,10.5,35.9,10.11Z"/></g><path class="cls-2" d="M1022.7,462.02c-12.01-8.1-28.8-10.59-33.96-2-3.63,6.72-6.33,13.61-7.84,20.63-1.14,7.31,3.7,11.5,12.66,19.43,2.84,2.51,6.68,5.05,11.03,7.22-3.14-5.5-4.1-9.08,5.58-1.07-1.38-7.44-1.06-13.29,3.08-19.36,5.1,4.57,4.79,16.17,2.02,24.35,5.32-4.89,11.7-5.85,13.19-5.1-.7,3.2-2.7,5.38-5.14,6.91,9.04,.92,17.58-1.3,22.38-9.32,10.11-16.9-9.26-32.43-23-41.69Z"/><path class="cls-2" d="M1064.39,546.27c2.8-1.54,5.17-3.84,5.94-7.38-1.49-.74-7.87,.21-13.19,5.1,2.76-8.19,3.08-19.78-2.02-24.35-4.15,6.06-4.47,11.91-3.08,19.36-11.7-9.68-7.87-2.45-3.4,4.68,0,0,.19,.44,.55,1.07-34.27-4.94-62.49-19.75-69.47-46.86,1.39,16.85,10.46,34.36,30.69,52.26,122,107.92,175.49,1.88,190.51-43.17,1.73-5.18,2.82-10.63,3.41-16.26-12.21,36.96-81.28,59.08-139.94,55.56Z"/><path class="cls-2" d="M1199.94,445.52c-10.32-30.41-126.76-21.33-107.11,45.94,3.33,11.39,14.13,15.9,24.56,17.1,8.57,.99,19.7,.28,31.13-1.68-9.9-5.08-19.11-10.7,.75-7.61-6.62-7.54-10.23-14.42-9.61-24.14,8.92,1.75,16.41,15.17,18.81,26.37,2.74-9.18,9.36-14.6,11.56-14.76,2.1,6.3-.85,11.94-4.56,16.36,20.67-5.71,38.55-14.92,39.34-24.82-.24-10.64-2.02-21.71-4.88-32.77Z"/><path class="cls-2" d="M1160.56,361.52c-26.29-34.29-60.06-80.71-108.86-44.11-17.17,12.88-25.73,28.44-30.69,44.58,2.14,12.53,9.1,24.7,18.25,33.6,7.41,7.21,16.96,13.3,27.36,18.05-3.22-5.22-5.49-9.95,3.12-2.83-1.07-5.75-.82-10.27,2.38-14.95,3.94,3.53,3.7,12.49,1.56,18.81,4.11-3.78,9.04-4.52,10.19-3.94-.85,3.87-4.14,5.82-7.4,6.91,12.4,4.44,25.41,6.99,37.16,7.18,23.25,.38,75.44-26.11,46.93-63.3Z"/></g></g></g><g><path class="cls-7" d="M927.02,749.4c-24.03-24.87-84.88-68.16-150.65-48.98-65.77,19.18-124.93,79.38-53.51,81.86,134.07,4.66,282.26,47.96,204.16-32.88Z"/><path class="cls-6" d="M776.38,713.17c65.77-16.55,126.62,20.79,150.65,42.24,14.3,12.77,20.95,21.92,21.55,28.37,.26-7.53-7.28-21.95-22.58-37.78-24.03-24.87-84.31-67.21-150.07-48.02-45.98,13.41-88.21,49.29-85.37,69.06,2.9-17.26,42.94-43.08,85.82-53.87Z"/><path class="cls-10" d="M928.09,749.2c-24.44-25.3-68.93-57.14-118.21-57.14-11.73,0-23.34,1.65-34.52,4.91-48.24,14.07-88.82,48.38-86.06,70.45,1,7.96,5.6,17.5,33.43,18.47,36.34,1.26,72.91,2.81,106.24,6.47,32.46,3.57,61.69,9.26,82.89,9.26,23.49,0,35.62-3.9,39.33-12.65,3.97-9.36-4.41-20.42-23.11-39.77Zm-205.22,33.08c-71.42-2.48-12.26-62.68,53.51-81.86,65.77-19.18,126.62,24.1,150.65,48.98,78.1,80.84-70.08,37.54-204.16,32.88Z"/></g><path class="cls-10" d="M776.38,713.17c65.77-16.55,126.62,20.79,150.65,42.24,14.3,12.77,20.95,21.92,21.55,28.37,.26-7.53-7.54-16.86-22.84-32.7-24.03-24.87-85.34-62.5-151.11-43.32-45.98,13.41-86.64,46.05-84.07,59.27,2.9-17.26,42.94-43.08,85.82-53.87Z"/></g></g></g><rect class="cls-1" x="1204.86" y="298.16" width="188.45" height="86.65" rx="41.57" ry="41.57"/><text class="cls-13" transform="translate(1244.13 360.11)"><tspan x="0" y="0">Mint</tspan></text></svg>